<svg width="85" height="15" fill="none" xmlns="http://www.w3.org/2000/svg"><path fill-rule="evenodd" clip-rule="evenodd" d="M39.517 9.411c.197-1.04.406-3.057-1.431-3.057-1.235 0-2.389.815-2.907 3.672-.316 1.745.03 3.145 1.461 3.145 1.047 0 2.322-.84 2.877-3.76Zm-7.167 1.165c.412-3.759 2.153-6.084 6.291-6.084 3.073 0 4.09 2.283 3.677 4.735C41.658 13.152 40.089 15 36.15 15c-2.552 0-4.064-2.024-3.8-4.424Zm-5.547-4.11c1.371 0 1.953.902 1.63 3.213-.331 2.363-1.552 3.422-3.001 3.422-.908 0-1.429-.62-1.255-1.579l.502-3.044c.193-1.129.888-2.012 2.105-2.012h.019Zm-1.12 8.477c3.206 0 5.04-2.255 5.542-5.169.638-3.59-1.159-5.225-3.418-5.225-1.062 0-1.828.094-2.428.394L26.25 0h-2.67l-2.646 14.765h2.008s.29-.611.58-.611c.192 0 .655.789 2.162.789Zm34.007-4.83c-.43 2.97-.836 3.267-2.305 3.267-1.004 0-1.378-.67-1.206-1.55.233-1.195 1.16-1.718 3.511-1.718Zm3.187-2.65c.386-2.18-.812-2.933-3.226-2.933-3.012 0-4.325 1.392-4.325 1.392l.927 1.522s.974-1.11 2.917-1.11c1.084 0 1.106.537 1.003 1.11L59.96 8.74c-3.882-.095-5.87.713-6.314 3.194-.368 2.03 1.196 3.01 2.953 3.01.907 0 1.642-.134 2.53-.886.174.49.482.748.83.805.56.113 1.526-.015 1.816-.222-.02-.3 0-1.07.328-2.875l.773-4.305Zm-45.768 2.65c-.43 2.97-.836 3.267-2.305 3.267-1.005 0-1.378-.67-1.207-1.55.233-1.195 1.161-1.718 3.512-1.718Zm3.186-2.65c.386-2.18-.812-2.933-3.225-2.933-3.012 0-4.325 1.392-4.325 1.392l.926 1.522s.974-1.11 2.917-1.11c1.084 0 1.107.537 1.003 1.11L17.38 8.74c-3.882-.095-5.87.713-6.314 3.194-.367 2.03 1.197 3.01 2.954 3.01.907 0 1.641-.134 2.53-.886.174.49.482.748.83.805.56.113 1.526-.015 1.815-.222-.02-.3 0-1.07.328-2.875l.773-4.305ZM8.162 4.741C7.93 6.02 6.913 6.918 5.657 6.918H4.075l.82-4.544 1.439-.007c1.708 0 2.04 1.096 1.828 2.375Zm-.542 3.43c1.95-.414 2.962-1.951 3.232-2.946.695-2.745-.56-4.888-4.151-4.85L2.584.372 0 14.765h2.683l1.062-5.78c2.475-.066 2.776.52 3.243 3.326l.424 2.454h2.784c-.329-1.484-.542-2.886-.811-4.014-.29-1.184-.741-2.11-1.9-2.55l.135-.03ZM85 4.548h-3.147l-3.617 3.733-.053-.008L79.63.01h-2.626L74.36 14.765h2.665l.271-1.476.54-3.233c1.409 0 2.201.151 2.82 2.875l.424 1.835h2.723s-.676-2.793-1.12-3.882c-.465-1.148-.971-1.905-2.053-2.111L85 4.549ZM73.74 7.857c.407-2.237-.443-3.327-2.933-3.327-1.855 0-2.584.795-3.28 1.472l.069-1.246-2.466.015-.192 1.845-1.429 8.15h2.7l.87-5.293c.309-1.822 1.604-3.214 2.819-3.214 1.352 0 1.336.752 1.124 1.898l-1.177 6.608h2.679l1.217-6.908Zm-28.334 6.297c.194 0 .656.789 2.163.789 3.206 0 5.04-2.255 5.542-5.169.638-3.59-1.158-5.225-3.417-5.225-1.063 0-1.857.094-2.437.394L48.127 0h-2.663L42.82 14.765h2.008s.29-.611.598-.611h-.02Zm4.893-4.475c-.361 2.246-1.552 3.422-2.981 3.422-.907 0-1.43-.62-1.275-1.579l.502-3.044c.194-1.129.889-2.012 2.125-2.012 1.37 0 2 .908 1.629 3.213Z" fill="#000FAA"/></svg>